<svg width="72" height="22" viewBox="0 0 72 22" fill="none" xmlns="http://www.w3.org/2000/svg">
<path fill-rule="evenodd" clip-rule="evenodd" d="M0 9.96557C0 13.1977 1.96413 16.4569 6.36239 16.4569C10.7566 16.4569 12.7246 13.1977 12.7246 9.96557C12.7246 7.75798 11.9174 5.21595 10.5705 3.1622C9.26045 1.17937 7.6864 0 6.36239 0C5.03434 0 3.45985 1.17937 2.1612 3.1622C0.807559 5.21595 0 7.75798 0 9.96557ZM45.1727 4.84873H40.719V0.881409H54.3979V4.84873H49.9444L49.9442 15.5751H45.1725L45.1727 4.84873ZM64.5798 4.84873H71.5789V0.881409H64.5805C58.1499 0.881409 54.7167 3.83482 54.7167 8.22823C54.7167 12.6216 58.1499 15.5751 64.5805 15.5751H71.5789V11.6077H64.5798C61.6043 11.6077 59.6474 10.6251 59.6474 8.22823C59.6474 5.83133 61.6043 4.84873 64.5798 4.84873ZM28.4696 9.65186L31.0135 0.881409H39.4455V15.5751H34.674V3.61586L31.2052 15.5751H25.734L22.2675 3.62333V15.5751H17.4957V0.881409H25.9257L28.4696 9.65186Z" fill="#E30611"/>
</svg>
