<svg width="40" height="40" viewBox="0 0 40 40" fill="none" xmlns="http://www.w3.org/2000/svg">
<path fill-rule="evenodd" clip-rule="evenodd" d="M20 40C31.0457 40 40 31.0457 40 20C40 8.9543 31.0457 0 20 0C8.9543 0 0 8.9543 0 20C0 31.0457 8.9543 40 20 40Z" fill="#BBC1C7"/>
<mask id="mask0" mask-type="alpha" maskUnits="userSpaceOnUse" x="0" y="0" width="40" height="40">
<path fill-rule="evenodd" clip-rule="evenodd" d="M20 40C31.0457 40 40 31.0457 40 20C40 8.9543 31.0457 0 20 0C8.9543 0 0 8.9543 0 20C0 31.0457 8.9543 40 20 40Z" fill="white"/>
</mask>
<g mask="url(#mask0)">
<path fill-rule="evenodd" clip-rule="evenodd" d="M12.9511 22.2273C12.8934 21.6792 11.6345 21.6774 11.3973 19.6766C11.2699 18.6027 11.7763 17.9982 12.083 17.8082C12.083 17.8082 11.3191 16.0751 11.3191 14.3564C11.3191 9.24348 13.8626 5 20 5C23.3132 5 24.3404 7.33766 24.3404 7.33766C27.3006 7.33766 28.6808 10.5678 28.6808 14.3564C28.6808 16.2449 27.9169 17.8082 27.9169 17.8082C28.2236 17.9982 28.73 18.6027 28.6027 19.6766C28.3654 21.6774 27.561 22.1841 27.0488 22.2273C26.8521 24.0928 24.9915 26.4823 24.3404 26.8306V29.9484C25.19 32.6968 29.5247 32.768 32.9575 34.571C31 36.25 24.8423 39.5357 20 39.5357C15.1577 39.5357 9.49998 36.5 7.00281 34.5919C10.4418 32.7685 14.8067 32.7074 15.6596 29.9484V26.8306C15.0085 26.4851 13.1479 24.0957 12.9511 22.2273Z" fill="white"/>
<path d="M39.25 20C39.25 30.6315 30.6315 39.25 20 39.25C9.36852 39.25 0.75 30.6315 0.75 20C0.75 9.36852 9.36852 0.75 20 0.75C30.6315 0.75 39.25 9.36852 39.25 20Z" stroke="#BBC1C7" stroke-width="1.5"/>
</g>
</svg>
